<svg width="525" height="290" viewBox="0 0 525 290" fill="none" xmlns="http://www.w3.org/2000/svg">
<path d="M271.5 1L271 89.5L307 2L271.5 1Z" stroke="black"/>
<path d="M336.5 8.5L307 2L271 89.5L336.5 8.5Z" stroke="black"/>
<path d="M271 89L336.5 8.5L368 20L271 89Z" stroke="black"/>
<path d="M271 89L368 20L394 33.5L271 89Z" stroke="black"/>
<path d="M271 89L394 33.5L413.5 48.5L271 89Z" stroke="black"/>
<path d="M413.5 48.5L430.5 67L271 89L271 89Z" stroke="black"/>
    <path d="M271 89L430.5 67L444 84L271 89Z" stroke="black"/>
    <path d="M271 89L444 84L456.5 104.5L271 89Z" stroke="black"/>
<path d="M456.5 104.5L271 89L437 107.5L456.5 104.5Z" stroke="black"/>
<path d="M437 107.5L271 89L415 110.5L437 107.5Z" stroke="black"/>
<path d="M414.5 110.5L271 89L391 114L414.5 110.5Z" stroke="black"/>
<path d="M391 114L271 89L361.5 117.5L391 114Z" stroke="black"/>
<path d="M361.5 117.5L271 89L336.5 119.5L361.5 117.5Z" stroke="black"/>
<path d="M336.5 119.5L271 89L314.5 120.5L336.5 119.5Z" stroke="black"/>
<path d="M314.5 120.5L271 89L287.5 121.5L314.5 120.5Z" stroke="black"/>
<path d="M287.5 121.5L271 89V122L287.5 121.5Z" stroke="black"/>
<path d="M271 122V89L254.5 122H271Z" stroke="black"/>
<path d="M254.5 122L271 89L227.5 121L254.5 122Z" stroke="black"/>
<path d="M271 89L227.5 121L205 120L271 89Z" stroke="black"/>
<path d="M205.5 120L271 89L181 118L205.5 120Z" stroke="black"/>
<path d="M181 118L271 89L150.5 114.5L181 118Z" stroke="black"/>
<path d="M151 114.5L271 89L126.5 111L151 114.5Z" stroke="black"/>
<path d="M127 111L271 89L105.5 108L127 111Z" stroke="black"/>
<path d="M106 108L271 89L85.5 105L106 108Z" stroke="black"/>
<path d="M85.5 105L271 89L98 84.5L85.5 105Z" stroke="black"/>
<path d="M98 84.5L271 89L111.5 67L98 84.5Z" stroke="black"/>
<path d="M111.5 67L271 89L128.5 48.5L111.5 67Z" stroke="black"/>
<path d="M128.5 48.5L271 89L148 33L128.5 48.5Z" stroke="black"/>
<path d="M148 33L271 89L174 19.5L148 33Z" stroke="black"/>
<path d="M174 19.5L271 89L206 8L174 19.5Z" stroke="black"/>
<path d="M206 8L271 89L235 1.5L206 8Z" stroke="black"/>
<path d="M235 1.5L271 89L271.5 1L235 1.5Z" stroke="black"/>
<path d="M523.5 124L456 104.5L447.5 106L523.5 124Z" stroke="black"/>
<path d="M436.5 107.5L447.5 106L501.5 133L436.5 107.5Z" stroke="black"/>
<path d="M501 133L436.5 107.5L427.5 108.5L501 133Z" stroke="black"/>
<path d="M501 133L427.5 108.5L487.5 138L501 133Z" stroke="black"/>
<path d="M428 108.5L487.5 138L415.5 110.5L428 108.5Z" stroke="black"/>
<path d="M487.5 138L415.5 110.5L470 145L487.5 138Z" stroke="black"/>
<path d="M470 145L415.5 110.5L406 112L470 145Z" stroke="black"/>
<path d="M470 145L406 112L448.5 151.5L470 145Z" stroke="black"/>
<path d="M448.5 151.5L406 112L391 114L448.5 151.5Z" stroke="black"/>
<path d="M420 158.5L391 114L448.5 151.5L420 158.5Z" stroke="black"/>
<path d="M420 158.5L391 114L401 161.5L420 158.5Z" stroke="black"/>
<path d="M401 161.5L391 114L361 117.5L401 161.5Z" stroke="black"/>
<path d="M401 161.5L361 117.5L377.5 164.5L401 161.5Z" stroke="black"/>/
<path d="M377.5 164.5L361 117.5L336.5 119.5L377.5 164.5Z" stroke="black"/>
<path d="M377.5 164.5L336.5 119.5L352.5 166.5L377.5 164.5Z" stroke="black"/>
<path d="M352.5 166.5L336.5 119.5L314.5 120.5L352.5 166.5Z" stroke="black"/>
<path d="M352.5 166.5L314.5 120.5L318 168.5L352.5 166.5Z" stroke="black"/>
<path d="M318 168.5L314.5 120.5L287.5 121.5L318 168.5Z" stroke="black"/>
<path d="M318 168.5L287.5 121.5L291 169L318 168.5Z" stroke="black"/>
<path d="M291.5 169.5L287.5 121.5L271 122L291.5 169.5Z" stroke="black"/>
<path d="M291.5 169L271 121.5L271.5 169H291.5Z" stroke="black"/>
<path d="M271.5 169L271 121.5L248 169H271.5Z" stroke="black"/>
<path d="M248 168.5L271 122H254.5L248 168.5Z" stroke="black"/>
<path d="M248 169L254.5 122L218 169H248Z" stroke="black"/>
<path d="M218.5 169L254.5 122L227.5 121L218.5 169Z" stroke="black"/>
<path d="M218.5 168.5L227.5 121L192.5 168.5H218.5Z" stroke="black"/>
<path d="M205.5 120L227.5 121L192.5 168.5L205.5 120Z" stroke="black"/>
<path d="M192.5 168.5L205.5 120L161.5 166.5L192.5 168.5Z" stroke="black"/>
<path d="M181 118L205.5 120L161.5 166.5L181 118Z" stroke="black"/>
<path d="M161.5 166.5L181 118L133 162.5L161.5 166.5Z" stroke="black"/>
<path d="M181 118L151 114.5L133 162.5L181 118Z" stroke="black"/>
<path d="M133 162.5L151 114.5L111.5 158.5L133 162.5Z" stroke="black"/>
<path d="M151 114.5L127 111L111.5 158.5L151 114.5Z" stroke="black"/>
<path d="M127 111L111.5 158.5L80.5 152L127 111Z" stroke="black"/>
<path d="M109.5 108.5L127 111L80.5 152L109.5 108.5Z" stroke="black"/>
<path d="M109.5 108.5L80.5 152L51.5 143L109.5 108.5Z" stroke="black"/>
<path d="M97.5 107L109.5 108.5L51.5 143L97.5 107Z" stroke="black"/>
<path d="M97.5 107L51.5 143L23 133L97.5 107Z" stroke="black"/>
<path d="M97 107L23 133L2.5 124L97 107Z" stroke="black"/>
<path d="M2.5 124L97 107L91.5 106L2.5 124Z" stroke="black"/>
<path d="M91 106L2.5 124L85.5 105L91 106Z" stroke="black"/>
<path d="M522.5 124L447.5 106L501.5 133L522.5 124Z" stroke="black"/>
<path d="M23.5 133L2 123.5L63 176.5L23.5 133Z" stroke="black"/>
<path d="M52 143L63 176.5L23 133L52 143Z" stroke="black"/>
<path d="M52 143L63 176.5L76.5 182.5L52 143Z" stroke="black"/>
<path d="M80.5 152L76.5 182.5L52.5 143L80.5 152Z" stroke="black"/>
<path d="M103 188L80.5 152L76.5 182.5L103 188Z" stroke="black"/>
<path d="M112 158.5L103 188L80.5 152L112 158.5Z" stroke="black"/>
<path d="M120 191L112 158.5L103 188L120 191Z" stroke="black"/>
<path d="M133 162.5L120 191L112 158.5L133 162.5Z" stroke="black"/>
<path d="M140.5 194.5L133 162.5L120 191L140.5 194.5Z" stroke="black"/>
<path d="M161.5 166.5L140.5 194.5L133 162.5L161.5 166.5Z" stroke="black"/>
<path d="M164 196.5L161.5 166.5L140.5 194.5L164 196.5Z" stroke="black"/>
<path d="M161.5 166.5L164 196.5L192.5 168.5L161.5 166.5Z" stroke="black"/>
<path d="M164 196.5L192.5 168.5L214.5 199L164 196.5Z" stroke="black"/>
<path d="M233.5 169L214.5 199L192.5 168.5L233.5 169Z" stroke="black"/>
<path d="M271.5 200L233.5 169L214.5 199L271.5 200Z" stroke="black"/>
<path d="M271.5 169V200L233.5 169H271.5Z" stroke="black"/>
    <path d="M271.5 169L306.5 168.5L271.5 200L271.5 169Z" stroke="black"/>
<path d="M306.5 168.5L271.5 200L331.5 199L306.5 168.5Z" stroke="black"/>
<path d="M271.5 256V200L301.5 199.5L271.5 256Z" stroke="black"/>
<path d="M271.5 256L301.5 199.5L331.5 199L271.5 256Z" stroke="black"/>
<path d="M331.5 199L271.5 256L365 196.5L331.5 199Z" stroke="black"/>
<path d="M364.5 196.5L271.5 256L397.5 194.5L364.5 196.5Z" stroke="black"/>
<path d="M397.5 194.5L271.5 256L426 191L397.5 194.5Z" stroke="black"/>
<path d="M426 191L271.5 256L433.5 199L426 191Z" stroke="black"/>
<path d="M433.5 199L271.5 256L441.5 208.5L433.5 199Z" stroke="black"/>
<path d="M271.5 256L441.5 208.5L416.5 228L271.5 256Z" stroke="black"/>
<path d="M416.5 228L271.5 256L391.5 240.5L416.5 228Z" stroke="black"/>
<path d="M391.5 240.5L271.5 256L357.5 249.5L391.5 240.5Z" stroke="black"/>
<path d="M357.5 249.5L271.5 256L322.5 253.5L357.5 249.5Z" stroke="black"/>
<path d="M306.5 168.5L331.5 199L352.5 166.5L306.5 168.5Z" stroke="black"/>
<path d="M364.5 196.5L352.5 166.5L331.5 199L364.5 196.5Z" stroke="black"/>
<path d="M352.5 166.5L364.5 196.5L377.5 164.5L352.5 166.5Z" stroke="black"/>
<path d="M397.5 194.5L377.5 164.5L364.5 196.5L397.5 194.5Z" stroke="black"/>
<path d="M377.5 164.5L397.5 194.5L400 161.5L377.5 164.5Z" stroke="black"/>
<path d="M420 158.5L400 161.5L397.5 194.5L420 158.5Z" stroke="black"/>
<path d="M397.5 194.5L420 158.5L426 191L397.5 194.5Z" stroke="black"/>
<path d="M426 191L420 158.5L449 151.5L426 191Z" stroke="black"/>
<path d="M426 191L449 151.5L445.5 188L426 191Z" stroke="black"/>
<path d="M445.5 188L449 151.5L470.5 145L445.5 188Z" stroke="black"/>
<path d="M445.5 188L470.5 145L466 183L445.5 188Z" stroke="black"/>
<path d="M470.5 145L466 183L488 138L470.5 145Z" stroke="black"/>
<path d="M479.5 177L488 138L501 133L479.5 177Z" stroke="black"/>
<path d="M479.5 177L501 133L523 124L479.5 177Z" stroke="black"/>
<path d="M466 183L488 138L479.5 177L466 183Z" stroke="black"/>
<path d="M446 188L426 191L433.5 199L446 188Z" stroke="black"/>
<path d="M433.5 199L446 188L441.5 208.5L433.5 199Z" stroke="black"/>
<path d="M458.5 185L446 188L441.5 208.5L458.5 185Z" stroke="black"/>
<path d="M271.5 256L239 199.5L271.5 200V256Z" stroke="black"/>
<path d="M271.5 256L239 199.5L214.5 199L271.5 256Z" stroke="black"/>
<path d="M214.5 199L271.5 256L164 196.5L214.5 199Z" stroke="black"/>
<path d="M164 196.5L271.5 256L140.5 194L164 196.5Z" stroke="black"/>
<path d="M140.5 194L271.5 256L120 191L140.5 194Z" stroke="black"/>
<path d="M120 191L271.5 256L111 199.5L120 191Z" stroke="black"/>
<path d="M271.5 256L111 199.5L102.5 208L271.5 256Z" stroke="black"/>
<path d="M102.5 208L271.5 256L132.5 228.5L102.5 208Z" stroke="black"/>
<path d="M132.5 228.5L271.5 256L159 240.5L132.5 228.5Z" stroke="black"/>
<path d="M159 240.5L271.5 256L195 249.5L159 240.5Z" stroke="black"/>
<path d="M111 199.5L120 191L102.5 188L111 199.5Z" stroke="black"/>
<path d="M111 199.5L102.5 188V208L111 199.5Z" stroke="black"/>
<path d="M102.5 208V188L81.5 183.5L102.5 208Z" stroke="black"/>
<path d="M178.5 280.5L202 250L219 251.5L178.5 280.5Z" stroke="black"/>
<path d="M235.5 253.5L219 251.5L182.5 285.5L235.5 253.5Z" stroke="black"/>
<path d="M182.5 285.5L219 251.5L178.5 280.5L182.5 285.5Z" stroke="black"/>
<path d="M167.5 289L178.5 280.5L182.5 285.5L167.5 289Z" stroke="black"/>
<path d="M359 285L304 254H322.5L359 285Z" stroke="black"/>
<path d="M339 251.5L322.5 254L363 280.5L339 251.5Z" stroke="black"/>
<path d="M363 280.5L322.5 254L359 285L363 280.5Z" stroke="black"/>
<path d="M374 288.5L363 280.5L359 285L374 288.5Z" stroke="black"/>
</svg>
